<svg width="172" height="16" viewBox="0 0 172 16" fill="none" xmlns="http://www.w3.org/2000/svg">
<path d="M0.292893 7.29289C-0.0976311 7.68342 -0.097631 8.31658 0.292893 8.70711L6.65685 15.0711C7.04738 15.4616 7.68054 15.4616 8.07107 15.0711C8.46159 14.6805 8.46159 14.0474 8.07107 13.6569L2.41421 8L8.07107 2.34315C8.46159 1.95262 8.46159 1.31946 8.07107 0.928932C7.68054 0.538407 7.04738 0.538407 6.65685 0.928932L0.292893 7.29289ZM171.707 8.70709C172.098 8.31657 172.098 7.6834 171.707 7.29288L165.343 0.928918C164.953 0.538394 164.319 0.538394 163.929 0.928918C163.538 1.31944 163.538 1.95261 163.929 2.34313L169.586 7.99999L163.929 13.6568C163.538 14.0474 163.538 14.6805 163.929 15.0711C164.319 15.4616 164.953 15.4616 165.343 15.0711L171.707 8.70709ZM1 9L171 8.99999L171 6.99999L1 7L1 9Z" fill="#4F4F4F"/>
</svg>
