<svg width="340" height="24" viewBox="0 0 340 24" fill="none" xmlns="http://www.w3.org/2000/svg">
<path d="M0.93934 10.9393C0.353553 11.5251 0.353553 12.4749 0.93934 13.0607L10.4853 22.6066C11.0711 23.1924 12.0208 23.1924 12.6066 22.6066C13.1924 22.0208 13.1924 21.0711 12.6066 20.4853L4.12132 12L12.6066 3.51472C13.1924 2.92893 13.1924 1.97918 12.6066 1.3934C12.0208 0.807611 11.0711 0.807611 10.4853 1.3934L0.93934 10.9393ZM339.061 13.0606C339.646 12.4748 339.646 11.5251 339.061 10.9393L329.515 1.39337C328.929 0.807583 327.979 0.807583 327.393 1.39337C326.808 1.97916 326.808 2.9289 327.393 3.51469L335.879 12L327.393 20.4853C326.808 21.071 326.808 22.0208 327.393 22.6066C327.979 23.1924 328.929 23.1924 329.515 22.6066L339.061 13.0606ZM2 13.5L338 13.5L338 10.5L2 10.5L2 13.5Z" fill="#4F4F4F"/>
</svg>
