<svg width="16" height="148" viewBox="0 0 16 148" fill="none" xmlns="http://www.w3.org/2000/svg">
<path d="M8.70711 0.292893C8.31658 -0.0976311 7.68342 -0.0976311 7.29289 0.292893L0.928932 6.65685C0.538408 7.04738 0.538408 7.68054 0.928932 8.07107C1.31946 8.46159 1.95262 8.46159 2.34315 8.07107L8 2.41421L13.6569 8.07107C14.0474 8.46159 14.6805 8.46159 15.0711 8.07107C15.4616 7.68054 15.4616 7.04738 15.0711 6.65685L8.70711 0.292893ZM7.2929 147.707C7.68342 148.098 8.31659 148.098 8.70711 147.707L15.0711 141.343C15.4616 140.953 15.4616 140.319 15.0711 139.929C14.6805 139.538 14.0474 139.538 13.6569 139.929L8.00001 145.586L2.34315 139.929C1.95263 139.538 1.31946 139.538 0.928938 139.929C0.538414 140.319 0.538414 140.953 0.928938 141.343L7.2929 147.707ZM7 1L7.00001 147L9.00001 147L9 1L7 1Z" fill="#4F4F4F"/>
</svg>
