<svg width="24" height="292" viewBox="0 0 24 292" fill="none" xmlns="http://www.w3.org/2000/svg">
<path d="M13.0607 0.93934C12.4749 0.353553 11.5251 0.353553 10.9393 0.93934L1.3934 10.4853C0.807612 11.0711 0.807612 12.0208 1.3934 12.6066C1.97919 13.1924 2.92893 13.1924 3.51472 12.6066L12 4.12132L20.4853 12.6066C21.0711 13.1924 22.0208 13.1924 22.6066 12.6066C23.1924 12.0208 23.1924 11.0711 22.6066 10.4853L13.0607 0.93934ZM10.9394 291.061C11.5251 291.646 12.4749 291.646 13.0607 291.061L22.6066 281.515C23.1924 280.929 23.1924 279.979 22.6066 279.393C22.0208 278.808 21.0711 278.808 20.4853 279.393L12 287.879L3.51473 279.393C2.92894 278.808 1.9792 278.808 1.39341 279.393C0.807624 279.979 0.807624 280.929 1.39341 281.515L10.9394 291.061ZM10.5 2L10.5 290L13.5 290L13.5 2L10.5 2Z" fill="#4F4F4F"/>
</svg>
