<svg width="27" height="25" viewBox="0 0 27 25" fill="none" xmlns="http://www.w3.org/2000/svg">
<path d="M2.47187 0H10.9661V8.33811H9.26727V2.48976C6.9138 3.45651 4.9738 5.19314 3.77677 7.40469C2.57973 9.61624 2.19948 12.1663 2.70058 14.6219C3.20169 17.0774 4.55326 19.287 6.52573 20.8753C8.49821 22.4636 10.97 23.3327 13.5212 23.335C16.2302 23.3376 18.8457 22.3626 20.87 20.5955C22.8944 18.8284 24.1864 16.3925 24.5002 13.7512C24.814 11.1099 24.1278 8.44748 22.572 6.27051C21.0163 4.09353 18.6996 2.55387 16.0627 1.94445V0.236803C18.9835 0.820193 21.6034 2.39029 23.4668 4.67391C25.3302 6.95754 26.3189 9.81015 26.2611 12.7354C26.2033 15.6607 25.1025 18.4736 23.1503 20.6845C21.1981 22.8955 18.5181 24.3646 15.5764 24.8363C12.6348 25.3081 9.61775 24.7525 7.05026 23.2664C4.48276 21.7802 2.52731 19.4575 1.52412 16.7024C0.520921 13.9472 0.533484 10.934 1.55962 8.18702C2.58575 5.44003 4.56051 3.1331 7.14031 1.66762H2.47187V0Z" fill="#F2F2F2"/>
</svg>
